<svg viewBox="250 300 1000 400" fill="none" xmlns="http://www.w3.org/2000/svg">
<path d="M453.82 580.094H477.935V556.313C466.086 554.894 453.82 558.316 453.82 571.583V580.094ZM423.364 587.353C397.832 587.937 384.898 596.281 384.898 622.064V685.313H409.013V622.064C409.013 609.965 413.518 608.13 422.947 607.796C428.872 607.462 430.958 608.63 436.298 605.627C441.304 603.04 443.223 596.949 443.057 588.187C436.465 587.854 431.291 587.27 423.364 587.353ZM295.032 628.489H329.744C343.178 628.489 347.016 633.579 347.016 646.346C347.016 659.196 342.844 664.786 329.744 664.786H295.032V628.489V628.489ZM371.881 647.264C371.881 626.236 362.703 618.977 350.687 616.39C360.784 611.968 368.293 605.877 368.293 587.603C368.293 562.07 356.194 552.892 331.246 552.892H270V685.313H333.832C357.863 685.313 371.881 675.8 371.881 647.264ZM295.032 608.38V573.502H326.156C340.09 573.502 343.595 578.508 343.595 590.774C343.595 603.29 339.673 608.38 326.156 608.38H295.032V608.38ZM580.15 580.094H604.264V556.313C592.416 554.894 580.15 558.316 580.15 571.583V580.094ZM579.983 588.688H604.348V685.479H579.983V588.688ZM773.816 587.353C760.966 587.353 744.695 593.861 734.599 598.284V549.971C722.751 548.553 710.401 551.974 710.401 565.241V685.313H734.599V617.892C745.53 613.72 758.046 609.548 766.307 609.548C773.399 609.548 777.571 613.971 777.571 620.479V685.313H801.769V619.728C801.769 598.784 794.259 587.353 773.816 587.353ZM453.82 588.688H478.018V685.479H453.82V588.688ZM532.672 607.796H549.944C562.627 607.796 567.383 602.039 566.215 588.521H532.672V556.313C520.823 554.894 508.558 558.316 508.558 571.583V588.605H490.534V607.879H508.558V651.686C508.558 675.8 518.404 686.397 543.603 686.397C551.363 686.397 557.871 685.813 564.046 684.979L563.462 665.704C558.956 666.038 552.197 666.538 546.607 666.538C537.345 666.538 532.672 663.368 532.672 653.104V607.796ZM641.562 615.389C641.562 609.214 646.319 607.045 652.243 607.045C662.339 607.045 671.601 607.379 677.692 607.629C688.623 607.963 693.963 602.039 693.379 589.439C686.037 588.605 669.265 587.436 655.33 587.436C633.719 587.436 617.865 595.53 617.865 615.639C617.865 636.416 629.547 642.007 650.991 645.595C670.35 648.765 674.438 650.101 674.438 656.859C674.438 665.036 665.26 666.205 656.582 666.205C643.732 666.205 630.048 665.37 621.537 664.619L620.369 684.812C629.547 685.646 642.981 686.397 657.667 686.397C682.615 686.397 698.302 678.637 698.302 657.861C698.302 637.835 687.789 631.91 666.762 627.905C647.153 624.484 641.562 623.149 641.562 615.389ZM964.145 608.881H914.247C913.079 623.399 917.835 629.574 930.518 629.574H939.196V662.617C932.271 663.618 916.584 664.786 909.658 664.786C889.799 664.786 882.123 657.026 882.123 618.059C882.123 580.177 887.88 571.249 919.17 573.585L940.531 575.171C954.8 576.005 960.14 568.245 959.89 556.146C950.127 554.561 924.344 551.724 913.663 551.724C868.021 551.724 856.006 564.824 856.006 618.56C856.006 670.877 870.608 686.314 908.74 686.314C923.009 686.314 949.96 683.31 964.062 680.39V608.881H964.145ZM1102.16 615.389C1102.16 609.214 1106.91 607.045 1112.84 607.045C1122.93 607.045 1132.2 607.379 1138.2 607.629C1149.13 607.963 1154.47 602.039 1153.89 589.439C1146.55 588.605 1129.78 587.436 1115.84 587.436C1094.23 587.436 1078.38 595.53 1078.38 615.639C1078.38 636.416 1090.06 642.007 1111.5 645.595C1130.86 648.765 1134.95 650.101 1134.95 656.859C1134.95 665.036 1125.77 666.205 1117.09 666.205C1104.24 666.205 1090.56 665.37 1082.05 664.619L1080.88 684.812C1090.06 685.646 1103.49 686.397 1118.18 686.397C1143.13 686.397 1158.81 678.637 1158.81 657.861C1158.81 637.835 1148.3 631.91 1127.27 627.905C1107.75 624.484 1102.16 623.149 1102.16 615.389ZM1040.83 667.456C1034.65 668.291 1022.22 668.624 1011.96 668.624C1002.28 668.624 1000.69 662.283 1000.69 656.609C1000.69 647.681 1004.86 645.344 1014.71 643.509C1023.05 641.923 1031.32 640.922 1040.83 640.338V667.456ZM1064.94 618.727C1064.94 598.701 1056.85 588.02 1032.07 588.02C1016.63 588.02 996.437 589.773 987.342 590.774C987.091 602.79 990.513 608.964 1001.03 608.964C1008.12 608.964 1021.97 608.13 1030.06 608.13C1037.16 608.13 1040.74 610.716 1040.74 618.977V622.565C1029.9 623.149 1019.97 624.317 1010.87 625.736C989.511 628.907 977.079 634.998 977.079 656.192C977.079 675.216 986.591 686.648 1006.95 686.648C1028.31 686.648 1052.09 685.062 1064.94 683.56V618.727Z" fill="#002E6E"/>
<path d="M1082.8 362.312C1082.8 362.312 1049.84 373.326 1032.4 388.596C1021.14 397.858 1013.38 410.458 1010.29 424.559C1022.8 417.801 1035.57 413.545 1035.57 413.545L1153.81 374.912C1153.81 374.912 1158.4 464.861 1105.49 504.329C1120.85 501.241 1138.54 494.733 1158.81 483.218C1237 438.828 1230.57 314 1230.57 314L1082.8 362.312Z" fill="url(#paint0_linear_1699_5649)"/>
<path d="M995.269 434.655C983.253 444.502 976.328 459.02 976.328 474.957C976.328 504.746 1002.78 528.944 1035.4 528.944C1051.34 529.361 1071.45 524.605 1096.48 510.336C1099.65 508.501 1102.74 506.582 1105.58 504.412C1097.23 506.081 1089.64 506.665 1082.63 506.498C1041.83 506.498 1008.79 476.293 1008.79 439.078C1008.79 434.155 1009.29 429.315 1010.37 424.643C1004.86 427.563 999.441 430.984 995.269 434.655Z" fill="url(#paint1_linear_1699_5649)"/>
<defs>
<linearGradient id="paint0_linear_1699_5649" x1="1171.33" y1="478.491" x2="1110.58" y2="348.193" gradientUnits="userSpaceOnUse">
<stop stop-color="#00AEEF"/>
<stop offset="0.8" stop-color="#074EA2"/>
<stop offset="1" stop-color="#2E3092"/>
</linearGradient>
<linearGradient id="paint1_linear_1699_5649" x1="978.876" y1="456.343" x2="1094.66" y2="523.19" gradientUnits="userSpaceOnUse">
<stop stop-color="#D6E040"/>
<stop offset="1" stop-color="#007F3D"/>
</linearGradient>
</defs>
</svg>
