<?xml version="1.0" encoding="utf-8"?>
<!-- Generator: Adobe Illustrator 27.1.1, SVG Export Plug-In . SVG Version: 6.00 Build 0)  -->
<svg version="1.1" id="Layer_1" xmlns="http://www.w3.org/2000/svg" xmlns:xlink="http://www.w3.org/1999/xlink" x="0px" y="0px"
	 viewBox="0 0 1000 500" style="enable-background:new 0 0 1000 500;" xml:space="preserve">
<style type="text/css">
	.st0{fill:#FF4822;}
</style>
<g>
	<path class="st0" d="M402.9,192.6L402.9,192.6c16.9,16.7,52.7-57.1,69.2-35.4c2.1,9.8-22.8,41.1,2.3,38
		c11.8-0.7,16.7-38.2,19.8-50.6c-1.3-28.4-41.9-0.5-51.8,1.5c-12.5-3.9,4.9-15-19.7-11.1C413,151.4,402.1,181,402.9,192.6z"/>
	<path class="st0" d="M353,195.2c16,0,30.2,0.1,40.8-20.3h0c38.6-59.8-44.6-53.8-55.7-24.2C324.9,175.4,322.1,198,353,195.2z
		 M364.4,147.6c2.5-3.2,13.1-3.3,11.6,1.4c0,3.8-3.8,24.8-8.3,29.4l0,0C347.6,188.5,358.6,158.1,364.4,147.6z"/>
	<path class="st0" d="M326.1,156.5L326.1,156.5c-4.1-11.5-22-3.4-21.6,8.8C307.3,177.1,327.1,168.7,326.1,156.5z"/>
	<path class="st0" d="M261,197c23.1,0.7,58.1-20.7,24.3-21c-18.4-1.2-12.6,4.3-29.9,7.4c-9.5,1.2-22.5-14.1-14.6-15.6h0
		c14.8-2.2,61,11.7,59.3-21.7c0-8.6-2-32.2-16.8-32.2C233.6,113.1,162.9,188.9,261,197z M246,151.2L246,151.2
		c1.2-1,33.7-30.4,31.2-7.2c0,7-0.7,8.3-8.3,8.3C268.4,151.7,242.3,153.9,246,151.2z"/>
	<path class="st0" d="M805,249.8c-32.2-2.7-38.5,11.8-24-26.4c2.1-5.7,3.1-10.4-5.8-12.5c-66.4-4-64.6,83.1-80.7,126.4h0
		c-17.7,76.3,130.2,43.4,84.6,0.5C720.5,356,750.4,321.9,758,291C811.9,299.6,824.8,251.2,805,249.8z"/>
	<path class="st0" d="M337,240.9c-37.3-3.4-73.6,58.3-73.4,6.3c-8.5-2-34.8-9.9-39.8,3.1c-13.2,32.1-26.7,76.8-38.6,116.4
		c-2.2,6.5,0,9.7,16.5,13.6c20.3,5,23.5,3.7,27-2.6c44.7-86.6,122.4-128.9,65.1-13.6c-10.4,15,47.4,25.4,47,12.5
		C353,342.3,404,246.1,337,240.9z"/>
	<path class="st0" d="M689.3,250.8c-22.7-26.6-43.2,10.1-70.2,26.1c-11-13.6-23-27.1-30.8-33.4c-5-3.9-11-5-24,3.9
		c-29.2,18.2,2,39,13.8,61.6c-20.1,22.5-68,36.4-46.5,63.7c6,7.6,13.9,12.8,20.1,9.7v0c46.1-18.5,39.6-59.5,80.2-2.4
		c6.3,11.1,46-12.5,34.5-25.8c-5.5-13.6-12.8-26.6-21.1-39.7C664.6,292.4,710.9,276.5,689.3,250.8z"/>
	<path class="st0" d="M528.2,303.9c-47.7-198.1-284.5,133.3-34.5,72.6h0c6.5-3.7,9.9-8.4,11.7-19.6c8.2-31.4-38.6-5.9-51.4-11.2
		c-24.5,0-24.3-6.3-24-13.8C454.2,327.1,530.5,348.3,528.2,303.9z M471.3,279.8L471.3,279.8c7.1-2.3,22.7,20.5,6.3,20.9
		c0,0-33.4,0-33.4,0C452.2,289.5,462.7,279.8,471.3,279.8z"/>
</g>
</svg>
