<svg xmlns="http://www.w3.org/2000/svg" width="3000" height="1401" xmlns:v="https://vecta.io/nano"><path d="M129 281c69.158-.908 133.333 27.788 182.555 75.426C318.533 363.252 325.07 370.227 331 378l1.267 1.642c12.59 16.38 22.391 34.081 31.757 52.448l5.562 10.844 31.292 61.199 15.509 30.356 3.139 6.138 4.49 8.776L440 581c3.453-5.325 6.498-10.731 9.293-16.426l1.174-2.366 2.458-4.965 6.407-12.903 1.256-2.524 8.787-17.066c4.436-8.298 8.622-16.714 12.81-25.14l11.006-21.349c3.549-6.698 6.934-13.474 10.309-20.262l14.121-27.504 4.727-9.148C533.777 398.755 548.455 378.237 566 360l1.817-1.9c8.84-9.193 17.896-17.561 28.183-25.1l1.725-1.287c8.741-6.516 17.786-12.349 27.275-17.713l2.143-1.219C665.007 291.464 708.576 280.48 752 281c-8.927 19.145-18.267 38.089-28.191 56.738-3.549 6.698-6.935 13.474-10.309 20.262l-11.437 22.375C697.905 388.182 693.938 396.08 690 404l-13.242 25.84c-4.124 7.778-8.023 15.665-11.942 23.547l-11.008 21.351c-3.549 6.698-6.934 13.474-10.309 20.262l-12.691 24.738c-3.549 6.698-6.934 13.474-10.309 20.262l-11.437 22.375C604.905 570.182 600.938 578.08 597 586l-13.242 25.84c-4.124 7.778-8.023 15.665-11.942 23.547l-11.008 21.351c-3.549 6.698-6.934 13.474-10.309 20.262l-12.672 24.701C532.006 712.691 526.531 723.862 521 735l-1 2c1.032 2.642 1.032 2.642 2.613 5.652l1.768 3.512 1.931 3.773 1.957 3.867 11.97 23.031c4.126 7.778 8.025 15.668 11.944 23.552l10.997 21.329c4.238 7.997 8.256 16.103 12.267 24.215 3.033 6.115 6.167 12.141 9.553 18.068 8.542-15.174 16.388-30.648 24.135-46.238l13.362-26.111c4.048-7.604 7.854-15.328 11.688-23.041l11.006-21.349c3.549-6.698 6.934-13.474 10.309-20.262l12.691-24.738c3.549-6.698 6.934-13.474 10.309-20.262l12.691-24.738c3.549-6.698 6.934-13.474 10.309-20.262l11.438-22.375c4.158-7.807 8.125-15.705 12.063-23.625l13.242-25.84c4.124-7.778 8.023-15.665 11.942-23.547l11.008-21.351c3.549-6.698 6.934-13.474 10.309-20.262l12.691-24.738c3.549-6.698 6.934-13.474 10.309-20.262l15.354-29.828 3.341-6.484c9.526-18.67 21.517-35.997 35.723-51.422 1.906-2.075 3.75-4.188 5.582-6.328 7.158-8.176 14.994-15.195 23.5-21.937l3.215-2.625C926.881 299.339 982.791 282.322 1041 281c-1.519 5.035-3.64 9.555-6 14.23l-1.187 2.374-3.813 7.583-2.627 5.235-13.867 26.922c-4.05 7.605-7.856 15.33-11.691 23.045l-11.006 21.349c-3.549 6.698-6.934 13.474-10.309 20.262l-12.691 24.738c-3.549 6.698-6.934 13.474-10.309 20.262l-11.437 22.375C941.905 477.182 937.938 485.08 934 493l-13.242 25.84c-4.124 7.778-8.023 15.665-11.942 23.547l-11.008 21.351c-3.549 6.698-6.934 13.474-10.309 20.262l-12.691 24.738c-3.549 6.698-6.934 13.474-10.309 20.262l-12.691 24.738c-3.549 6.698-6.934 13.474-10.309 20.262l-12.691 24.738c-3.549 6.698-6.934 13.474-10.309 20.262l-11.437 22.375C802.905 749.182 798.938 757.08 795 765l-13.242 25.84c-4.124 7.778-8.023 15.665-11.942 23.547l-11.008 21.351c-3.549 6.698-6.934 13.474-10.309 20.262l-12.691 24.738c-3.549 6.698-6.934 13.474-10.309 20.262l-12.691 24.738c-3.549 6.698-6.934 13.474-10.309 20.262l-12.691 24.738c-3.549 6.698-6.934 13.474-10.309 20.262l-12.672 24.699c-4.365 8.233-8.495 16.584-12.627 24.936l-1.611 3.248-1.442 2.918C650 1049 650 1049 649 1050c-1.658.096-3.319.122-4.98.12l-3.268.004-3.616-.011h-3.784l-10.301-.013-10.754-.008-20.378-.021-23.194-.022L521 1050l-1.659-3.326-6.164-12.347-2.654-5.319-13.898-27.259c-4.429-8.302-8.622-16.714-12.81-25.14L474 957.5c-4.552-8.552-8.871-17.212-13.184-25.887L451 912.5c-4.552-8.552-8.871-17.212-13.184-25.887L428 867.5c-3.959-7.439-7.749-14.954-11.5-22.5l-11.437-22.375c-4.48-8.412-8.735-16.932-12.977-25.465l-12.327-24c-4.124-7.778-8.023-15.665-11.942-23.547L358 730.5c-4.552-8.552-8.871-17.212-13.184-25.887L335 685.5c-4.552-8.552-8.871-17.212-13.184-25.887L312 640.5c-3.959-7.439-7.749-14.954-11.5-22.5l-11.437-22.375c-4.48-8.412-8.735-16.932-12.977-25.465l-12.327-24c-4.124-7.778-8.023-15.665-11.942-23.547L242 503.5c-4.552-8.552-8.871-17.212-13.184-25.887L219 458.5c-4.552-8.552-8.871-17.212-13.184-25.887L196 413.5c-3.959-7.439-7.749-14.954-11.5-22.5l-11.437-22.375c-4.48-8.412-8.735-16.932-12.977-25.465l-11.148-21.785c-4.093-7.693-8.035-15.458-11.937-23.25l-1.711-3.409-1.601-3.208-1.426-2.855c-1.197-2.517-2.258-5.053-3.262-7.653z" fill="#009949"/><path d="M2118 282c250.668 0 250.668 0 307 51l2.629 2.266c36.914 32.119 56.776 79.622 60.617 127.822 3.674 53.468-8.098 108.709-43.824 150.075-14.678 16.474-30.402 29.696-49.422 40.837l-1.982 1.168C2313.813 701.168 2196.661 683 2118 683V282zm86 76v249c90.007 4.319 90.007 4.319 162-35l2.18-1.953c18.443-17.036 28.832-44.62 31.82-69.047l.336-2.652c2.903-26.72-1.362-54.265-13.336-78.348l-1.43-2.973c-13.525-26.554-37.943-43.989-65.772-53.08C2283.081 352.645 2239.937 358 2204 358zm515-58.562c15.542 13.637 22.63 29.676 29.75 48.625l2.487 6.516 5.177 13.61 7.497 19.589 1.221 3.169 2.449 6.356 4.984 12.963L2790 455.5l22.229 57.699 21.158 54.894 14.956 38.802 1.31 3.407 5.095 13.262 12.611 32.612 1.019 2.607 4.663 11.89 1.6 4.085 1.392 3.536C2877 681 2877 681 2877 683h-94l-7.404-18.379-1.212-3.314-1.247-3.439-1.324-3.634-2.735-7.528-3.514-9.65-3.365-9.251-1.278-3.5-1.164-3.219-1.031-2.838C2758 616 2758 616 2758 614h-178l-3 10-3.109 8.84-.878 2.444-2.762 7.654-1.805 5.018L2563 663l-.985 2.716-2.906 7.976-.901 2.486c-2.093 5.708-2.093 5.708-3.208 6.823-2.922.095-5.82.126-8.742.114h-2.779l-9.139-.016-6.318-.004-16.665-.025-16.991-.02L2461 683c.731-4.806 2.018-9.053 3.824-13.551l.889-2.259 1.94-4.902 5.432-13.777 1.185-3.009 13.142-33.87 7.075-18.351 1.412-3.661 13.6-35.121 20.5-53 21.652-55.967 18.233-47.143 4.241-10.986 2.738-7.091 1.339-3.467 7.081-18.402 3.846-9.992 1.695-4.424c9.633-25.259 22.114-44.296 47.176-56.026 26.982-10.891 58.144-6.62 81 11.438zM2665 368c-1.181 2.367-1.181 2.367-2.135 5.229l-1.201 3.351-1.285 3.682-1.369 3.842-2.922 8.252-4.642 13.091-4.777 13.43-13.758 38.202-3.656 10.047-12.501 34.08-2.548 6.899-4.825 13.009-2.147 5.807-1 2.671-.899 2.441-.786 2.115c-.691 2.009-.691 2.009-.549 4.851h130l-10.988-32.23-1.032-2.859-3.293-9.098-2.365-6.549-4.895-13.546-10.318-28.635-3.322-9.22-10.573-29.469-5.008-14.015-2.394-6.722-3.313-9.282-.989-2.802-.918-2.55-.791-2.221c-.762-2-.762-2-2.803-3.802-3.185-.277-3.185-.277-6 2zm-987-67l1.785 1.352c8.093 6.305 13.679 14.928 17.949 24.129l1.03 2.208c4.059 8.88 7.461 18.012 10.871 27.157l6.232 16.569 1.294 3.435 13.277 34.526 4.75 12.223 1.195 3.076 13.555 35.139 1.257 3.271 6.298 16.391 12.382 32.214 1.242 3.23 19.758 51.27 1.374 3.56 13.427 34.765L1830.875 671l1.335 3.505 1.157 3.058.972 2.566C1835 682 1835 682 1835 683h-94l-7.404-18.379-1.212-3.314-1.247-3.439-1.324-3.634-2.735-7.528-3.514-9.65-3.365-9.251-1.278-3.5-1.164-3.219-1.031-2.838C1716 616 1716 616 1716 614h-178l-3 10-2.145 6.121-1.193 3.295-1.26 3.451-1.318 3.628-2.746 7.538-3.507 9.643-3.367 9.253-1.266 3.488-1.184 3.238-1.036 2.842C1515 679 1515 679 1513 683h-94c1.336-6.014 2.661-11.234 4.922-16.844l.885-2.246 1.922-4.848 5.392-13.656 1.176-2.981 13.115-33.79 7.076-18.354 1.412-3.661 13.6-35.121 20.5-53 21.653-55.969 15.318-39.614 11.181-28.957 7.238-18.807 4.057-10.503 1.798-4.692c8.747-23.019 21.761-40.337 44.317-51.332 27.852-12.114 60.38-7.388 83.438 12.375zm-53 65c-2.217 3.105-3.64 6.345-4.951 9.911l-1.08 2.916-1.153 3.161-1.234 3.349-3.325 9.075-2.1 5.731-22.73 63.06-12.904 35.766-1.35 3.677-6.436 17.451-2.285 6.204-1.067 2.861-.96 2.613-.84 2.267c-.73 2.096-.73 2.096-.587 4.958h130l-18.102-51.323-17.511-48.403-.702-1.974-7.354-20.739L1641 396l-.668-1.867-4.762-13.18-1.254-3.502-1.183-3.227-1.031-2.845c-1.111-2.399-1.998-3.79-4.102-5.379h-3zm-558-84l27.202-.104 12.634-.047 12.216-.039 4.637-.022c17.12-.116 29.676 1.846 42.89 13.442 5.958 6.813 9.471 14.716 12.391 23.195l1.07 3.015 2.274 6.47 3.686 10.466 3.941 11.143 13.5 37.68 4.155 11.507.699 1.937 1.401 3.882 2.807 7.777 12.444 34.497 4.79 13.279 13.292 36.873 6.412 17.797.696 1.931L1275 585c2.056-2.056 2.54-3.085 3.47-5.76l.838-2.38.903-2.621.97-2.766 2.092-5.992 5.735-16.355 1.223-3.478 14.019-38.835 16.992-47.443 17.076-47.48 14.672-40.897L1360 351l.965-2.75 6.358-17.927 2.056-5.811c5.568-15.852 10.82-29.965 26.683-38.078 7.777-3.412 14.75-4.562 23.25-4.547h2.102l6.801.016 4.745.004 12.433.025 12.71.02L1483 282c-.562 3.886-1.36 7.353-2.784 11.009l-1.122 2.906-1.231 3.136-1.293 3.337-3.519 9.034-3.728 9.591-5.438 13.995-13.645 35.267-4.125 10.69-19.345 50.236-21.165 54.914L1386 537l-22.377 58.066-15.318 39.742-1.394 3.626-6.567 17.096-2.352 6.121-1.051 2.742-5.128 13.19-.981 2.494C1330 682 1330 682 1329 683c-1.391.095-2.788.122-4.182.12l-2.732.004-3.021-.011h-3.163l-10.405-.016-7.193-.004-18.973-.025-19.344-.02L1222 683l-1.899-4.25-1.068-2.39c-1.514-3.459-2.893-6.965-4.256-10.485l-.901-2.311-2.939-7.564-2.123-5.455-5.663-14.577-3.403-8.761-29.154-75.347-19.096-49.36-21.906-56.645L1110.5 396.5l-23.752-61.426-11.806-30.5-1.739-4.464-3.056-7.813-1.295-3.324-1.099-2.804C1067 284 1067 284 1067 282zm777 0c60.49 0 60.49 0 74.738 13.555 9.68 10.466 11.734 22.947 11.622 36.784l.008 3.583-.02 9.735-.006 10.539-.025 18.224-.036 26.348-.055 42.757-.062 41.515-.002 2.615-.018 20.246L1930 607h169v76h-255V282zm-374 435h30c8.934 9.283 8.934 9.283 11.063 13.582 2.845 5.387 6.242 10.088 9.938 14.918l3.5 4.75 1.75 2.375 19.25 26.125 1.75 2.375 3.498 4.748 8.787 11.912 17.09 23.402 13.788 18.708 25.212 34.292 13.788 18.708 25.212 34.292 13.79 18.71 14.577 19.653L1701 990l1-273h29v326h-29c-8.298-8.717-8.298-8.717-10.246-12.801-2.74-5.343-6.11-9.943-9.754-14.699l-3.531-4.781-1.75-2.375-9.824-13.574L1655 978.5l-15.105-20.73L1628 941.5l-15.105-20.73L1601 904.5l-15.105-20.73L1574 867.5l-21.604-29.729-20.165-27.665L1520.5 794l-20.5-28-1 277h-29V717zm1026-2l2.302.52c11.121 2.603 21.437 6.497 31.698 11.48l1.893.901c17.047 8.206 39.138 22.551 49.107 39.099-1.643 4.93-6.135 6.904-10.312 9.75l-2.631 1.863-2.545 1.746-2.329 1.608c-2.182 1.032-2.182 1.032-4.371.791-2.341-.98-3.263-2.192-4.812-4.196-20.111-23.919-53.432-36.184-83.692-39.366-37.667-3.203-72.709 8.546-101.558 32.679A99.29 99.29 0 0 0 2353 789l-1.201 1.634c-23.415 32.192-32.229 73.744-26.553 112.987 6.03 36.898 22.857 71.498 53.693 93.928 8.225 5.715 16.928 10.366 26.061 14.451l3.262 1.461c26.066 10.793 57.691 12.122 84.738 4.539l2.03-.551c10.286-2.87 19.616-7.406 28.97-12.449l3.289-1.754c7.235-4.029 13.429-8.877 19.711-14.246l2.613-1.656c2.69-2.642 2.986-4.079 3.072-7.787l-.026-2.171.032-2.344.016-7.495.044-4.634.061-17.163L2553 907h-123v-26h152l.438 57 .193 17.973.037 10.668.071 7.106.056 10.788.076 3.178c-.065 6.559-1.347 9.949-6.014 14.611L2575 1004l-1.916 1.799c-28.606 26.378-67.024 43.039-106.084 44.201l-1.932.062c-43.478 1.212-86.869-12.109-119.068-42.062l-1.84-1.708C2315.691 979.568 2299.415 944.49 2294 906l-.286-1.929c-.998-7.572-.958-15.197-.964-22.821l-.002-2.217c.018-12.229.759-24.029 3.252-36.033l.504-2.49c6.424-30.762 20.827-57.829 42.496-80.51l2.145-2.371c20.821-22.169 50.531-36.026 79.855-42.629l2.164-.496c22.852-4.963 50.066-4.729 72.836.496zm-453 2c144.108 0 144.108 0 160.125 5.625l2.217.767c13.616 4.943 24.582 12.291 34.658 22.608l2.199 2.137c16.559 17.079 22.205 40.854 22.176 63.926l-.001 2.065c-.078 25.28-7.498 47.448-25.374 65.872l-1.637 1.859C2221.91 898.831 2197.838 904.857 2176 908l1.73 2.395c6.712 9.324 13.214 18.784 19.682 28.279l7.212 10.514 2.715 3.945 1.339 1.946 3.887 5.663 16.309 23.57 19.617 28.479 7.383 10.771 1.36 1.983 9.621 13.635C2268 1041 2268 1041 2268 1043c-29.019 3.912-29.019 3.912-37.988-1.954-4.799-5.079-7.964-11.176-11.067-17.387-3.355-6.697-7.565-12.72-11.849-18.849l-6.706-9.85-2.701-3.989-1.348-1.991-10.536-15.553-3.905-5.765-12.119-17.883-5.619-8.288-2.635-3.885-1.25-1.842-1.079-1.59-1.366-2.017-1.078-1.543c-2.142-3.1-4.098-6.187-5.833-9.535-4.231-7.846-4.231-7.846-11.552-12.431-4.29-.66-8.554-.499-12.877-.332a419.81 419.81 0 0 1-4.199-.014c-5.14.005-10.279.14-15.418.26L2072 909v134h-29V717zm29 26v139l50.5.25 15.854.11 9.508.021 6.275.041c21.831.203 40.824-2.425 57.863-17.422l2.086-1.836c13.149-12.343 19.673-29.346 20.249-47.13.307-19.776-4.739-38.241-18.796-52.757-21.24-19.05-45.663-20.449-72.836-20.375l-5.444.003-20.009.032L2072 743zm-852-26h207v26h-178v120h175v26h-175v128h178v26h-207V717zm573 0h207v26h-179v120h176v26h-176v128h179v26h-207V717zm796 0c29.268-3.61 29.268-3.61 37.97 1.871 5.025 5.137 8.155 11.382 11.301 17.784 2.934 5.677 6.616 10.836 10.229 16.096l3.781 5.734c2.479 3.723 5.04 7.364 7.688 10.969 4.92 6.702 9.462 13.642 14.031 20.586 3.239 4.896 6.524 9.729 10 14.461 4.911 6.686 9.441 13.611 14 20.539 3.848 5.818 7.822 11.505 11.951 17.126 4.116 5.695 8 11.552 11.923 17.381l3.297 4.884 1.94 2.882c1.864 2.654 3.834 5.179 5.888 7.688 8.619-11.838 16.805-23.965 25.02-36.084l7.855-11.478 1.309-1.901 2.547-3.695 6.645-9.654 1.361-1.979 12.428-18.142 11.672-17.009L2812.5 759.5l14.781-21.547 5.813-8.469 1.537-2.241 2.931-4.281c3.327-4.85 3.327-4.85 4.439-5.962 2.594-.089 5.16-.115 7.754-.098l2.35.004 7.459.031 5.045.014L2877 717c-3.213 6.088-6.765 11.671-10.875 17.188a670.22 670.22 0 0 0-14.437 20.5l-21.649 31.391-10.351 14.859-2.039 2.929L2806.5 820l-23.603 34.019-6.21 8.919-2.025 2.908-12.687 18.406-1.155 1.69-1.163 1.806C2758 890 2758 890 2755.579 892.342c-10.674 11.65-8.97 26.293-8.795 41.146l-.004 11.575.054 21.854.036 24.907.13 51.176h-29l.115-12.566.168-41.263.126-24.999.084-21.814.068-11.528c.289-17.476-.293-30.939-13.042-44.199-2.12-2.28-3.807-4.791-5.506-7.393l-1.674-2.472-1.651-2.453-15.625-22.75-2-2.87-4.024-5.771-10.351-14.859-2.039-2.929-12.438-18.013L2630 778l-22.895-33.045-7.89-11.31-1.96-2.775-3.837-5.398-1.742-2.464-1.565-2.199C2589 719 2589 719 2589 717z" fill="#706f6f"/></svg>