<svg xmlns="http://www.w3.org/2000/svg" xmlns:xlink="http://www.w3.org/1999/xlink" version="1.1" width="1080" height="1080" viewBox="0 0 1080 1080" xml:space="preserve">
<desc>Created with Fabric.js 5.3.0</desc>
<defs>
</defs>
<g transform="matrix(1.0482754389 0.1101781883 -0.1101781883 1.0482754389 455.3316261502 338.6355479263)" id="mbxwfLWS1mrrRKK0aDMw3">
<path style="stroke:white;stroke-width: 0; stroke-dasharray: none; stroke-linecap: butt; stroke-dashoffset: 0; stroke-linejoin: miter; stroke-miterlimit: 4; stroke: white;fill-rule: nonzero; opacity: 0.09;filter: url(#SVGID_36);" vector-effect="non-scaling-stroke" transform=" translate(0.000005, 0)" d="M -29.89978 6.99766 C -29.89978 -26.369020000000003 -3.8756999999999984 -53.987210000000005 29.899770000000004 -58.46989000000001 C 5.513920000000002 -53.685990000000004 -13.330109999999998 -22.51554000000001 -13.330109999999998 15.18486 C -13.330109999999998 31.33082 -9.873819999999998 46.27908 -4.006159999999998 58.46989 C -19.794839999999997 46.34918 -29.899769999999997 27.78946 -29.899769999999997 6.997659999999996 z" stroke-linecap="round" data-index="0"></path>
<filter id="SVGID_36" y="-72.39492483000001%" height="244.78984966000002%" x="-154.6694005%" width="409.338801%">
	<feGaussianBlur in="SourceAlpha" stdDeviation="26"></feGaussianBlur>
	<feOffset dx="28.5316954895" dy="-9.2705098292" result="oBlur"></feOffset>
	<feFlood flood-color="rgb(221,255,102)" flood-opacity="1"></feFlood>
	<feComposite in2="oBlur" operator="in"></feComposite>
	<feMerge>
		<feMergeNode></feMergeNode>
		<feMergeNode in="SourceGraphic"></feMergeNode>
	</feMerge>
</filter>
<path style="stroke: rgb(255,255,255); stroke-width: 0; stroke-dasharray: none; stroke-linecap: butt; stroke-dashoffset: 0; stroke-linejoin: miter; stroke-miterlimit: 4; fill: rgb(0,0,0); fill-rule: nonzero; opacity: 0.09;" vector-effect="non-scaling-stroke" transform=" translate(0.000005, 0)" d="M -29.89978 6.99766 C -29.89978 -26.369020000000003 -3.8756999999999984 -53.987210000000005 29.899770000000004 -58.46989000000001 C 5.513920000000002 -53.685990000000004 -13.330109999999998 -22.51554000000001 -13.330109999999998 15.18486 C -13.330109999999998 31.33082 -9.873819999999998 46.27908 -4.006159999999998 58.46989 C -19.794839999999997 46.34918 -29.899769999999997 27.78946 -29.899769999999997 6.997659999999996 z" stroke-linecap="round" data-index="1"></path>
</g>
<g transform="matrix(0.9436843752 0 0 0.9436843752 553.87327105 293.4540938964)" id="rMXCKXjlZok0NnJHZ_nO6">
<radialGradient id="SVGID_34" gradientUnits="userSpaceOnUse" gradientTransform="matrix(1 0 0 1 -152.5178910745 -222.59352)" cx="113.0221007203881" cy="337.7195726593424" r="225.74127332980288" fx="113.0221007203881" fy="337.7195726593424">
<stop offset="0%" style="stop-color:rgb(176,212,120);stop-opacity: 1"></stop>
<stop offset="9.176263435670334%" style="stop-color:rgb(182,214,117);stop-opacity: 1"></stop>
<stop offset="21.234208334012152%" style="stop-color:rgb(182,214,117);stop-opacity: 1"></stop>
<stop offset="50%" style="stop-color:rgb(164,207,156);stop-opacity: 1"></stop>
<stop offset="64.40159304387588%" style="stop-color:rgb(164,207,156);stop-opacity: 1"></stop>
<stop offset="94.9774055127163%" style="stop-color:rgb(125,195,138);stop-opacity: 1"></stop>
<stop offset="100%" style="stop-color:rgb(125,195,138);stop-opacity: 1"></stop>
</radialGradient>
<path style="stroke: rgb(0,0,0); stroke-width: 0; stroke-dasharray: none; stroke-linecap: butt; stroke-dashoffset: 0; stroke-linejoin: miter; stroke-miterlimit: 4; fill: url(#SVGID_34); fill-rule: nonzero; opacity: 1;" vector-effect="non-scaling-stroke" transform=" translate(-0.000014101, -0.000004941)" d="M -7.88797 222.45267 C -70.23365 219.36625 -157.06459999999998 162.12481000000002 -152.33240999999998 60.739810000000006 C -150.47955 21.043130000000005 -127.61687999999998 -43.35011 -89.96443999999998 -91.99097 C -31.452849999999984 -167.57849 50.546950000000024 -222.59352 50.546950000000024 -222.59352 C 50.546950000000024 -222.59352 22.307190000000023 -147.13056 43.34661000000003 -105.92685000000002 C 64.38603000000003 -64.72315000000002 160.47624000000002 -11.941490000000016 151.98859000000004 82.96203999999999 C 143.50094000000004 177.86556 54.45773000000004 225.53909999999996 -7.887949999999961 222.45268 z" stroke-linecap="round" data-index="2"></path>
</g>
<g transform="matrix(1.0482754389 0.1101781883 -0.1101781883 1.0482754389 455.3316261502 338.6355479263)" id="-AeeD8Yg554Hu6g1-E2Gx">
<linearGradient id="SVGID_37" gradientUnits="userSpaceOnUse" gradientTransform="matrix(1 0 0 1 -29.89977 -58.46989)" x1="21.750976873467607" y1="128.88599847009365" x2="33.65624857102193" y2="10.616062255232492">
<stop offset="0%" style="stop-color:rgb(222,255,177);stop-opacity: 1"></stop>
<stop offset="17.54835614801609%" style="stop-color:rgb(240,255,237);stop-opacity: 1"></stop>
<stop offset="37.40576947270072%" style="stop-color:rgb(226,255,187);stop-opacity: 1"></stop>
<stop offset="55.78130955742634%" style="stop-color:rgb(214,255,196);stop-opacity: 1"></stop>
<stop offset="100%" style="stop-color:rgb(110,206,128);stop-opacity: 1"></stop>
</linearGradient>
<path style="stroke: rgb(253,21,132); stroke-width: 0; stroke-dasharray: none; stroke-linecap: butt; stroke-dashoffset: 0; stroke-linejoin: miter; stroke-miterlimit: 4; fill: url(#SVGID_37); fill-rule: nonzero; opacity: 1;" vector-effect="non-scaling-stroke" transform=" translate(0, 0)" d="M -29.89977 6.99766 C -29.89977 -26.369020000000003 -3.8756899999999987 -53.987210000000005 29.899780000000003 -58.46989000000001 C 5.513930000000002 -53.685990000000004 -13.330099999999998 -22.51554000000001 -13.330099999999998 15.18486 C -13.330099999999998 31.33082 -9.873809999999999 46.27908 -4.006149999999998 58.46989 C -19.794829999999997 46.34918 -29.899759999999997 27.78946 -29.899759999999997 6.997659999999996 z" stroke-linecap="round" data-index="3"></path>
</g>
<g transform="matrix(0.9436843752 0 0 0.9436843752 553.8732710499 293.4540938964)" id="U_Y2KGe2hnJzymCPQoAKd">
<radialGradient id="SVGID_35" gradientUnits="userSpaceOnUse" gradientTransform="matrix(1 0 0 1 -152.5178910745 -222.59352)" cx="113.0221007203881" cy="337.7195726593424" r="323.9575450382623" fx="113.0221007203881" fy="337.7195726593424">
<stop offset="0%" style="stop-color:rgb(255,255,255);stop-opacity: 1"></stop>
<stop offset="40.15988492005149%" style="stop-color:rgb(255,255,255);stop-opacity: 1"></stop>
<stop offset="100%" style="stop-color:rgb(255,255,255);stop-opacity: 1"></stop>
</radialGradient>
<path style="stroke: rgb(0,0,0); stroke-width: 0; stroke-dasharray: none; stroke-linecap: butt; stroke-dashoffset: 0; stroke-linejoin: miter; stroke-miterlimit: 4; fill: url(#SVGID_35); fill-rule: nonzero; opacity: 0.02;" vector-effect="non-scaling-stroke" transform=" translate(-0.000014101, -0.000004941)" d="M -7.88797 222.45267 C -70.23365 219.36625 -157.06459999999998 162.12481000000002 -152.33240999999998 60.739810000000006 C -150.47955 21.043130000000005 -127.61687999999998 -43.35011 -89.96443999999998 -91.99097 C -31.452849999999984 -167.57849 50.546950000000024 -222.59352 50.546950000000024 -222.59352 C 50.546950000000024 -222.59352 22.307190000000023 -147.13056 43.34661000000003 -105.92685000000002 C 64.38603000000003 -64.72315000000002 160.47624000000002 -11.941490000000016 151.98859000000004 82.96203999999999 C 143.50094000000004 177.86556 54.45773000000004 225.53909999999996 -7.887949999999961 222.45268 z" stroke-linecap="round" data-index="4"></path>
</g>
<g transform="matrix(0.9436843752 0 0 0.9436843752 570.2352253443 373.3632805478)" id="D2xyjG-qFkjHT0EDyMT1C">
<linearGradient id="SVGID_38" gradientUnits="userSpaceOnUse" gradientTransform="matrix(1 0 0 1 -115.0649710442 -119.68012)" x1="58.47873141351451" y1="37.28622823591839" x2="104.91254861776079" y2="231.85403361894112">
<stop offset="0%" style="stop-color:rgb(255,255,255);stop-opacity: 1"></stop>
<stop offset="28.476754719280827%" style="stop-color:rgb(233,246,221);stop-opacity: 1"></stop>
<stop offset="61.46642372137582%" style="stop-color:rgb(176,215,171);stop-opacity: 1"></stop>
<stop offset="100%" style="stop-color:rgb(164,206,153);stop-opacity: 1"></stop>
</linearGradient>
<path style="stroke: rgb(0,0,0); stroke-width: 0; stroke-dasharray: none; stroke-linecap: butt; stroke-dashoffset: 0; stroke-linejoin: miter; stroke-miterlimit: 4; fill: url(#SVGID_38); fill-rule: nonzero; opacity: 1;" vector-effect="non-scaling-stroke" transform=" translate(0.0000039116, -0.0000017964)" d="M -106.01706 -119.68012 C -106.01706 -119.68012 -128.2207 -38.54678 -103.06277 20.976299999999995 C -77.90484000000001 80.49937 -43.46318 112.20597 -0.16794000000000153 118.41216999999999 C 43.1273 124.61836999999998 73.95785 107.71177999999999 96.63994 74.93154999999999 C 119.32203 42.151319999999984 126.79973 5.9822699999999855 85.34302 -12.708730000000017 C 43.886309999999995 -31.399740000000016 -5.803390000000007 -11.133110000000016 -48.752110000000016 -35.91943000000002 C -91.70083000000002 -60.70575000000002 -106.01707000000002 -119.68011000000001 -106.01707000000002 -119.68011000000001 z" stroke-linecap="round" data-index="5"></path>
</g>
<g transform="matrix(0.9436843752 0 0 0.9436843752 534.172949657 274.0486958354)" id="T-3OMdkFWdpLwp1f5nup2">
<linearGradient id="SVGID_39" gradientUnits="userSpaceOnUse" gradientTransform="matrix(1 0 0 1 0 0)" x1="113.02973477751291" y1="81.63481000000002" x2="83.41827168258172" y2="140.42873265292292">
<stop offset="0%" style="stop-color:rgb(255,255,255);stop-opacity: 1"></stop>
<stop offset="75.36781621810093%" style="stop-color:rgb(176,215,171);stop-opacity: 1"></stop>
<stop offset="100%" style="stop-color:rgb(164,206,153);stop-opacity: 1"></stop>
</linearGradient>
<path style="stroke: rgb(0,0,0); stroke-width: 0; stroke-dasharray: none; stroke-linecap: butt; stroke-dashoffset: 0; stroke-linejoin: miter; stroke-miterlimit: 4; fill: url(#SVGID_39); fill-rule: nonzero; opacity: 1;" vector-effect="non-scaling-stroke" transform=" translate(-68.0368924181, -81.63481)" d="M 31.44007 0 C 31.44007 0 31.44007 0 31.44007 0.00001 C 31.44007 0.00001 31.44007 0.00001 31.44007 0.00001 z M 31.44007 0.00001 C 31.437579999999997 0.02773 27.025479999999998 49.119 58.00902 67.00005 C 81.02945 80.28547 89.76483 80.46431 104.06908 85.57041000000001 C 109.02257 87.33863000000001 115.08662 89.07465 121.73707 93.30287000000001 C 145.18154 108.20839000000001 139.22898 144.78587000000002 108.58732 163.26962000000003 C 91.34870000000001 162.21983000000003 74.26768000000001 159.26566000000003 58.137480000000004 149.95669000000004 C 15.200870000000002 125.17736000000004 0.8806000000000012 66.22927000000004 0.8725200000000015 66.19602000000003 C 0.8708300000000015 66.20219000000003 0.5444700000000016 67.39545000000004 0.016620000000001522 69.59384000000003 L 1.5230872119076366e-15 69.45512000000002 C 1.5230872119076366e-15 69.45512000000002 1.5698500000000015 56.29059000000002 9.839700000000002 39.13173000000002 C 18.10821 21.97566000000002 31.435740000000003 0.007150000000017087 31.440070000000006 0.000010000000017384991 z M 0.87252 66.19601 C 0.87252 66.19601 0.87252 66.19601 0.87252 66.19602 C 0.87252 66.196 0.8725299999999999 66.196 0.8725299999999999 66.196 z" stroke-linecap="round" data-index="6"></path>
</g>
<g transform="matrix(0.9436843752 0 0 0.9436843752 542.5464293418 207.6425644054)" id="3jR4W3vLkepbpJlDamB9G">
<linearGradient id="SVGID_40" gradientUnits="userSpaceOnUse" gradientTransform="matrix(1 0 0 1 -0.0000083557 0)" x1="62.777777777778084" y1="35" x2="10.590129185221286" y2="161.99902134829182">
<stop offset="0%" style="stop-color:rgb(255,255,255);stop-opacity: 1"></stop>
<stop offset="57.53322550459682%" style="stop-color:rgb(163,206,151);stop-opacity: 1"></stop>
<stop offset="100%" style="stop-color:rgb(163,206,151);stop-opacity: 1"></stop>
</linearGradient>
<path style="stroke: rgb(0,0,0); stroke-width: 0; stroke-dasharray: none; stroke-linecap: butt; stroke-dashoffset: 0; stroke-linejoin: miter; stroke-miterlimit: 4; fill: url(#SVGID_40); fill-rule: nonzero; opacity: 1;" vector-effect="non-scaling-stroke" transform=" translate(-44.3894729179, -65.3323587157)" d="M 62.86607 0.00002 C 62.86607 0.00002 62.86606 0.00002 62.86605 0.000030000000000000004 C 62.866060000000004 0.000010000000000000003 62.86607 3.3881317890172014e-21 62.86607 3.3881317890172014e-21 z M 62.86605 0.00003 C 62.846740000000004 0.028409999999999998 49.063250000000004 20.293129999999998 49.063250000000004 36.61972 C 49.063250000000004 44.66869 51.385450000000006 53.55521 60.43244 63.46253 C 69.74929 73.66537 91.04162 83.42583 88.58277 99.74704 C 86.12392 116.06825 64.87903 128.30139 54.71064 130.25612999999998 C 53.044399999999996 130.57644 50.955349999999996 130.71849999999998 48.577819999999996 130.64629 C 42.724399999999996 128.37761999999998 35.86691 125.17652 26.787059999999997 119.93641 C -2.2620200000000033 103.17177 -0.19734000000000407 58.97248 0.1757599999999968 53.49579999999999 C 3.8716499999999967 46.41973999999999 13.077369999999997 34.95272999999999 26.688469999999995 23.380299999999988 C 42.66513 9.796619999999988 62.842679999999994 0.011359999999989157 62.86604 0.000029999999988206127 z" stroke-linecap="round" data-index="7"></path>
</g>
<g transform="matrix(0.9436843752 0 0 0.9436843752 623.9007484744 387.7529443256)" id="BJXy4_9LeBOWGDlqqvQqN">
<path style="stroke: rgb(93,150,191); stroke-width: 0; stroke-dasharray: none; stroke-linecap: butt; stroke-dashoffset: 0; stroke-linejoin: miter; stroke-miterlimit: 4; fill: rgb(93,150,191); fill-rule: nonzero; opacity: 1;" vector-effect="non-scaling-stroke" transform=" translate(0.0000021857, 0.0000068702)" d="M 65.36392 -107.69531 L 65.03341999999999 -108.52644000000001 L 65.03341999999999 -108.52644000000001 C 64.7713 -109.18560000000001 64.99945 -109.93844000000001 65.58337999999999 -110.34121 C 66.16731999999999 -110.74398000000001 66.95209 -110.6898 67.47514999999999 -110.21062 C 67.65335999999999 -110.04736000000001 67.69829999999999 -109.95266000000001 67.94243999999999 -109.64667 C 80.66069999999999 -93.70623 116.56669 -34.43397 53.89411999999999 41.936589999999995 C -0.1293500000000165 101.9881 -65.57276000000002 109.6454 -86.20438000000001 110.52838 C -87.82509000000002 110.59774 -88.01128000000001 110.62008 -88.90165000000002 110.60646 L -88.90165000000002 110.60646 C -89.31955000000002 110.60007 -89.67167000000002 110.29269 -89.73444000000002 109.87949 C -89.79722000000002 109.46629 -89.55228000000002 109.0682 -89.15514000000002 108.93797 C -89.04849000000002 108.903 -88.86769000000001 108.86297 -88.82523000000002 108.85528000000001 C -87.33021000000002 108.58654000000001 -72.16044000000002 107.63518 -54.827840000000016 102.34800000000001 C -21.560580000000016 92.20006000000001 22.503509999999984 69.00387 58.47680999999998 21.780290000000008 C 110.25766999999998 -57.57387999999999 65.36391999999998 -107.69531999999998 65.36391999999998 -107.69531999999998 z" stroke-linecap="round" data-index="8"></path>
</g>
<g transform="matrix(0.9436843752 0 0 0.9436843752 656.2619670588 443.6189953501)" id="q8jKSEgL1MiXvwlJgorCP">
<path style="stroke: rgb(0,0,0); stroke-width: 0; stroke-dasharray: none; stroke-linecap: butt; stroke-dashoffset: 0; stroke-linejoin: miter; stroke-miterlimit: 4; fill: rgb(93,150,191); fill-rule: nonzero; opacity: 1;" vector-effect="non-scaling-stroke" transform=" translate(7.471e-7, -0.0000064531)" d="M 65.55053 -58.57352 L 65.83201 -59.04608 L 65.83201 -59.04608 C 66.0038 -59.334480000000006 66.32679999999999 -59.497600000000006 66.66087 -59.46466 C 66.99494 -59.43172 67.27986 -59.20865 67.39201 -58.892250000000004 L 67.50498 -58.57352 C 67.50498 -58.57352 69.31248000000001 -23.27344 21.62281 23.210250000000002 C -32.41015 66.52229 -66.65459 58.962740000000004 -66.65459 58.962740000000004 L -67.25415 58.54037 L -67.25415 58.54037 C -67.47968999999999 58.38145 -67.57117 58.091370000000005 -67.4776 57.83182 C -67.38403 57.57226 -67.12849999999999 57.40728 -66.85343999999999 57.42883 C -66.43020999999999 57.46198 -66.24829 57.44242 -65.56813 57.374829999999996 C -54.6785 56.292669999999994 -27.665619999999997 58.91092 19.56893000000001 18.622449999999994 C 59.91154000000001 -18.602960000000003 65.55053000000001 -58.573510000000006 65.55053000000001 -58.573510000000006 z" stroke-linecap="round" data-index="9"></path>
</g>
<g transform="matrix(0.9436843752 0 0 0.9436843752 594.6013473005 355.5579370399)" id="vgr4CSjrZRrQYxUhSK-6e">
<path style="stroke: rgb(0,0,0); stroke-width: 0; stroke-dasharray: none; stroke-linecap: butt; stroke-dashoffset: 0; stroke-linejoin: miter; stroke-miterlimit: 4; fill: rgb(93,150,191); fill-rule: nonzero; opacity: 1;" vector-effect="non-scaling-stroke" transform=" translate(-0.0000047142, 0.000003926)" d="M 68.78566 -117.65401 C 68.65798 -118.1325 68.84286999999999 -118.63978 69.24848999999999 -118.9239 C 69.65410999999999 -119.20802 70.19403999999999 -119.20844000000001 70.60009 -118.92494 L 70.68399 -118.86637 C 70.68399 -118.86637 128.09982 -59.882580000000004 68.89414 30.125659999999996 C 5.4779299999999935 113.11636 -94.60196000000002 119.13727 -94.60196000000002 119.13727 L -94.99645000000002 119.09462 L -94.99645000000002 119.09462 C -95.34386000000002 119.05706 -95.62178000000003 118.78908000000001 -95.67197000000003 118.44326000000001 C -95.72216000000003 118.09745000000001 -95.53188000000003 117.76152 -95.20948000000003 117.62674000000001 L -94.76166000000003 117.43954000000001 C -94.76166000000003 117.43954000000001 -6.457620000000034 111.1298 61.08873999999997 25.835940000000008 C 115.65264999999997 -50.68598999999999 68.89414999999997 -117.24748999999998 68.89414999999997 -117.24748999999998 z" stroke-linecap="round" data-index="10"></path>
</g>
<g transform="matrix(0.9436843752 0 0 0.9436843752 555.8346180656 316.3531193179)" id="DEAGnDh0-YVsoVEtVJFHz">
<path style="stroke: rgb(0,0,0); stroke-width: 0; stroke-dasharray: none; stroke-linecap: butt; stroke-dashoffset: 0; stroke-linejoin: miter; stroke-miterlimit: 4; fill: rgb(93,150,191); fill-rule: nonzero; opacity: 1;" vector-effect="non-scaling-stroke" transform=" translate(0.0000124515, 0.0000031898)" d="M 61.78077 -125.37725 C 61.62218 -125.96761000000001 61.83004 -126.59572 62.3095 -126.97491000000001 C 62.78896 -127.35411 63.44806 -127.41168 63.986 -127.12134 L 64.47303 -126.85848 C 64.47303 -126.85848 136.3936 -41.99981 71.48581999999999 49.337630000000004 C 2.0797699999999963 138.25293 -97.85039 126.82741 -97.85039 126.82741 L -98.17076 126.70572 L -98.17076 126.70572 C -98.45817 126.59655 -98.64048 126.31238 -98.61992000000001 126.00563 C -98.59936 125.69888 -98.38075 125.44158 -98.08135000000001 125.37174999999999 L -97.62477000000001 125.26525 C -97.62477000000001 125.26525 -2.8552800000000076 133.85943 65.80775 44.89658999999999 C 126.28592 -44.55389000000001 61.91254 -124.88666000000002 61.91254 -124.88666000000002 z" stroke-linecap="round" data-index="11"></path>
</g>
<g transform="matrix(0.9436843752 0 0 0.9436843752 544.0205116291 331.330142098)" id="JLiLjzSAweCyXybbkiyoi">
<path style="stroke: rgb(0,0,0); stroke-width: 0; stroke-dasharray: none; stroke-linecap: butt; stroke-dashoffset: 0; stroke-linejoin: miter; stroke-miterlimit: 4; fill: rgb(93,150,191); fill-rule: nonzero; opacity: 1;" vector-effect="non-scaling-stroke" transform=" translate(0.0000082963, -0.0000049361)" d="M -99.4975 -150.4218 C -99.05502 -150.65282 -98.51655 -150.59171999999998 -98.13709 -150.26743 C -97.75763 -149.94314 -97.61336 -149.42076 -97.77261 -148.94769 L -98.00891 -148.24573999999998 C -98.00891 -148.24573999999998 -178.53478 -42.11453999999998 -41.97419 80.10893000000002 C 40.950030000000005 148.69604 127.14307 147.88983000000002 127.14307 147.88983000000002 L 127.57873 148.01227000000003 L 127.57873 148.01227000000003 C 128.12448 148.16565000000003 128.49729 148.66889000000003 128.48502 149.23565000000002 C 128.47276 149.80241 128.07853 150.28906000000003 127.52665999999999 150.41869000000003 L 127.49606999999999 150.42588000000003 C 127.49606999999999 150.42588000000003 35.51295999999999 156.58053000000004 -46.694990000000004 85.71473000000003 C -191.23828000000003 -44.58349999999996 -100.18652 -150.06205999999997 -100.18652 -150.06205999999997 z" stroke-linecap="round" data-index="12"></path>
</g>
<g transform="matrix(0.9436843752 0 0 0.9436843752 499.0459369783 386.7189956111)" id="pD_ALda-POu4iiEMg8dD8">
<path style="stroke: rgb(0,0,0); stroke-width: 0; stroke-dasharray: none; stroke-linecap: butt; stroke-dashoffset: 0; stroke-linejoin: miter; stroke-miterlimit: 4; fill: rgb(93,150,191); fill-rule: nonzero; opacity: 1;" vector-effect="non-scaling-stroke" transform=" translate(-0.0000070085, 0.00000112)" d="M 108.17736 127.43748 C 108.60385 127.39797999999999 108.94697 127.06998999999999 109.00565999999999 126.64572 C 109.06434999999999 126.22144999999999 108.82312999999999 125.81263 108.42338 125.65885 L 108.19913 125.57258 C 108.19913 125.57258 14.870689999999996 118.36193 -56.63586000000001 42.48809 C -139.84721000000002 -52.865210000000005 -85.05516 -122.53960000000001 -85.05516 -122.53960000000001 L -84.10924 -124.31139 L -84.10924 -124.31139 C -83.65785 -125.15688 -83.81578999999999 -126.19850000000001 -84.49752 -126.87218 C -85.17925 -127.54586 -86.22268 -127.69141 -87.06273999999999 -127.23001000000001 L -87.66546 -126.89897 C -87.66546 -126.89897 -147.84722 -58.69216 -66.12335999999999 42.48807999999998 C 7.2238900000000115 121.70627999999998 107.52847 127.49756999999998 107.52847 127.49756999999998 z" stroke-linecap="round" data-index="13"></path>
</g>
<g transform="matrix(0.9436843752 0 0 0.9436843752 478.6465378354 465.8619089785)" id="OjyrG_MVQSru95PYrZHio">
<path style="stroke: rgb(0,0,0); stroke-width: 0; stroke-dasharray: none; stroke-linecap: butt; stroke-dashoffset: 0; stroke-linejoin: miter; stroke-miterlimit: 4; fill: rgb(93,150,191); fill-rule: nonzero; opacity: 1;" vector-effect="non-scaling-stroke" transform=" translate(0.0000015379, -0.0000029264)" d="M -84.14264 -60.63182 C -84.11201 -61.110189999999996 -83.76344 -61.50812 -83.29327 -61.601459999999996 C -82.82310000000001 -61.694799999999994 -82.34895 -61.46021 -82.13791 -61.029819999999994 L -81.92318 -60.591919999999995 C -81.92318 -60.591919999999995 -67.73229 -11.611789999999992 -8.396240000000006 29.36195 C 31.464979999999997 59.39477 81.10047999999999 57.58952 81.10047999999999 57.58952 L 83.12841999999999 57.58952 L 83.12841999999999 57.58952 C 83.52914 57.58952 83.89399999999999 57.82036 84.06562999999998 58.18247 C 84.23724999999999 58.54457 84.18491999999999 58.973150000000004 83.93121999999998 59.28332 L 83.93121999999998 59.28332 L 83.93121999999998 59.28332 C 83.54750999999999 59.752430000000004 83.03838999999998 60.102830000000004 82.46318999999998 60.293710000000004 L 81.48431999999998 60.61854 C 81.48431999999998 60.61854 29.819899999999983 69.2416 -13.39673000000002 35.926500000000004 C -67.55428000000002 -4.171969999999995 -84.16558000000002 -60.27346 -84.16558000000002 -60.27346 z" stroke-linecap="round" data-index="14"></path>
</g>
<g transform="matrix(0.8054195384 0 0 0.8054195384 128.8507934843 639.6435376532)" id="Hltqmitl6j4gWeLLEc8G_">
<path style="stroke: rgb(0,0,0); stroke-width: 0; stroke-dasharray: none; stroke-linecap: butt; stroke-dashoffset: 0; stroke-linejoin: miter; stroke-miterlimit: 4; fill: rgb(102,204,153); fill-rule: nonzero; opacity: 1;" transform=" translate(0, 0)" d="M -65.8009 -97.75522 L 64.08300999999999 -97.75522 L 64.08300999999999 -68.29154 L -33.46886000000001 -68.29154 L -33.46886000000001 -16.649359999999994 L 56.35248999999999 -16.649359999999994 L 56.35248999999999 11.960620000000006 L -33.46886000000001 11.960620000000006 L -33.46886000000001 67.86469 L 65.8009 67.86469 L 65.8009 97.75522 L -65.79039999999999 97.75522 z" stroke-linecap="round" data-index="15"></path>
</g>
<g transform="matrix(1.8084865409 0 0 1.9138342289 688.2212879817 776.9806450961)" id="Q26b2PL8JtTNWYDnGH4rc">
<path style="stroke: rgb(153,153,153); stroke-width: 2; stroke-dasharray: none; stroke-linecap: butt; stroke-dashoffset: 0; stroke-linejoin: miter; stroke-miterlimit: 4; fill: none; fill-rule: nonzero; opacity: 1;" transform=" translate(0, 0)" d="M 0 -16.18123 C 8.93204 -16.18123 16.18123 -8.93204 16.18123 0 C 16.18123 8.93204 8.93204 16.18123 0 16.18123 C -8.93204 16.18123 -16.18123 8.93204 -16.18123 0 C -16.18123 -8.93204 -8.93204 -16.18123 0 -16.18123 z" stroke-linecap="round" data-index="16"></path>
</g>
<g transform="matrix(0.8054195384 0 0 0.8054195384 987.2937848289 641.6384280383)" id="zq-6PKQqwaWKlDhV_Vh39">
<path style="stroke: rgb(0,0,0); stroke-width: 0; stroke-dasharray: none; stroke-linecap: butt; stroke-dashoffset: 0; stroke-linejoin: miter; stroke-miterlimit: 4; fill: rgb(153,153,153); fill-rule: nonzero; opacity: 1;" transform=" translate(0, 0)" d="M -65.8009 -97.75522 L 64.08300999999999 -97.75522 L 64.08300999999999 -68.29154 L -33.46886000000001 -68.29154 L -33.46886000000001 -16.649359999999994 L 56.35248999999999 -16.649359999999994 L 56.35248999999999 11.960620000000006 L -33.46886000000001 11.960620000000006 L -33.46886000000001 67.86469 L 65.8009 67.86469 L 65.8009 97.75522 L -65.79039999999999 97.75522 z" stroke-linecap="round" data-index="17"></path>
</g>
<g transform="matrix(0.8054195384 0 0 0.8054195384 265.2476720345 639.915071852)" id="gjdXhm-WYgPJHADtAR5zc">
<path style="stroke-dasharray: none; stroke-linecap: butt; stroke-dashoffset: 0; stroke-linejoin: miter; stroke-miterlimit: 4; fill: rgb(102, 204, 153); fill-rule: nonzero; opacity: 1;" transform=" translate(-87.989955, -102.89492)" d="M 103.2449 0 C 130.77961 0 155.80795 10.76014 174.32449 28.28859 L 151.26888 52.7539 C 138.78003999999999 40.86929 121.86285 33.56781 103.2449 33.56781 C 64.84617 33.56781 33.68199 64.62635 33.68199 102.89491000000001 C 33.68199 141.16347000000002 64.84617 172.22201 103.2449 172.22201 C 122.06947 172.22201 139.15532000000002 164.75757000000002 151.68304 152.63855 L 175.97991000000002 175.89897000000002 C 157.31346000000002 194.37171 131.60901 205.78984000000003 103.24490000000002 205.78984000000003 C 46.253720000000015 205.78984000000003 1.4210854715202004e-14 159.69292000000002 1.4210854715202004e-14 102.89492000000003 C 1.4210854715202004e-14 46.09693000000003 46.253720000000015 2.842170943040401e-14 103.24490000000002 2.842170943040401e-14 z" stroke-linecap="round" data-index="18"></path>
</g>
<g transform="matrix(0.8054195384 0 0 0.8054195384 424.0364966181 639.9150595502)" id="oFw9R5QvRl-kV5qa5U-mD">
<path style="stroke: rgb(0,0,0); stroke-width: 0; stroke-dasharray: none; stroke-linecap: butt; stroke-dashoffset: 0; stroke-linejoin: miter; stroke-miterlimit: 4; fill: rgb(102,204,153); fill-rule: nonzero; opacity: 1;" transform=" translate(-101.27753, -100.89716)" d="M 101.27753 0 C 157.18273 0 202.55506 45.20193 202.55506 100.89716 C 202.55506 156.59239 157.18273 201.79432 101.27753 201.79432 C 45.37233 201.79432 0 156.59239 0 100.89716 C 0 45.20193 45.37233 0 101.27753 0 z M 34.66223 100.90384 C 34.66223 139.7231 64.39275 171.22858000000002 101.02501000000001 171.22858000000002 C 137.65726 171.22858000000002 167.38779 139.72310000000002 167.38779 100.90384000000002 C 167.38779 62.08458000000002 137.65726999999998 30.57910000000001 101.02501 30.57910000000001 C 64.39276 30.57910000000001 34.662229999999994 62.08458000000001 34.662229999999994 100.90384000000002 z" stroke-linecap="round" data-index="19"></path>
</g>
<g transform="matrix(0.8054195384 0 0 0.8054195384 568.4556100224 641.0651072311)" id="REFnwSAty70D52Pzszyl8">
<path style="stroke: rgb(0,0,0); stroke-width: 0; stroke-dasharray: none; stroke-linecap: butt; stroke-dashoffset: 0; stroke-linejoin: miter; stroke-miterlimit: 4; fill: rgb(153,153,153); fill-rule: nonzero; opacity: 1;" transform=" translate(0.0000038505, 0.0000147396)" d="M -46.59851 45.42447 C -46.59851 45.42447 -27.03541 78.97591 12.207970000000003 69.20069 C 38.906220000000005 62.550369999999994 36.33384 43.38768999999999 36.33384 43.38768999999999 C 36.33384 43.38768999999999 38.725170000000006 34.86070999999999 24.81172 22.71035999999999 C 18.40249 18.263909999999992 -19.509729999999998 8.91353999999999 -39.963860000000004 -8.37774000000001 C -56.10148 -22.01998000000001 -56.43233000000001 -43.60426000000001 -55.93092 -50.93160000000001 C -54.80975 -67.31583 -44.88341 -80.17280000000001 -37.688069999999996 -86.20398 C -23.196219999999997 -98.35114 1.9597900000000053 -99.52025 1.9597900000000053 -99.52025 C 1.9597900000000053 -99.52025 22.278810000000004 -100.48825000000001 38.27541000000001 -93.67553000000001 C 54.272000000000006 -86.86281000000001 65.94617000000001 -72.26937000000001 65.94617000000001 -72.26937000000001 L 44.267480000000006 -52.76616000000001 C 44.267480000000006 -52.76616000000001 35.38864000000001 -62.825870000000016 24.811720000000005 -67.31723000000001 C 14.234800000000005 -71.80859000000001 1.9597900000000053 -70.73160000000001 1.9597900000000053 -70.73160000000001 C 1.9597900000000053 -70.73160000000001 -8.891179999999995 -70.02350000000001 -15.255959999999995 -65.07350000000001 C -21.620739999999994 -60.12350000000001 -23.499339999999997 -50.931610000000006 -23.499339999999997 -50.931610000000006 C -23.499339999999997 -50.931610000000006 -29.890689999999996 -30.941020000000005 1.9597900000000017 -20.952500000000008 C 10.383700000000001 -16.908040000000007 43.95664000000001 -9.365510000000008 57.74875 8.602879999999992 C 69.79261 26.920909999999992 68.20806 43.38767999999999 68.20806 43.38767999999999 C 68.20806 43.38767999999999 70.36155000000001 102.29315 -3.176649999999995 99.46923999999999 C -45.794639999999994 100.06358999999999 -68.27682999999999 66.46868999999998 -68.27682999999999 66.46868999999998 z" stroke-linecap="round" data-index="20"></path>
</g>
<g transform="matrix(0.8054195384 0 0 0.8054195384 704.4611048578 642.2273689076)" id="6b0ssFPgTi-FECDeg118t">
<path style="stroke: rgb(0,0,0); stroke-width: 0; stroke-dasharray: none; stroke-linecap: butt; stroke-dashoffset: 0; stroke-linejoin: miter; stroke-miterlimit: 4; fill: rgb(153,153,153); fill-rule: nonzero; opacity: 1;" transform=" translate(-91.93505, -97.82091)" d="M 103.30113 0 L 183.87009999999998 195.64182 L 149.54922999999997 195.64182 L 134.28333999999995 156.13619 L 49.58676999999996 156.13619 L 34.11174999999996 195.64182 L -4.263256414560601e-14 195.64182 L 81.29360999999996 0 z M 91.93507 51.7737 L 58.58277 130.29608 L 125.28735 130.29608 L 108.6112 91.03488999999999 z" stroke-linecap="round" data-index="21"></path>
</g>
<g transform="matrix(0.8054195384 0 0 0.8054195384 839.6135771282 641.1576590019)" id="VukHhMEamS373P0XiWRnR">
<path style="stroke: rgb(0,0,0); stroke-width: 0; stroke-dasharray: none; stroke-linecap: butt; stroke-dashoffset: 0; stroke-linejoin: miter; stroke-miterlimit: 4; fill: rgb(153,153,153); fill-rule: nonzero; opacity: 1;" transform=" translate(-90.6383, -96.49277)" d="M 79.57447 192.98554 L 0 0 L 32.34055 0 L 90.63833 142.44888 L 120.25480999999999 70.08185 L 148.93608999999998 0 L 181.27659999999997 0 L 100.85106999999998 192.98554 z" stroke-linecap="round" data-index="22"></path>
</g>
<g transform="matrix(0.8054195384 0 0 0.8054195384 408.6217660264 776.0742482624)" id="AJk80UESyfrf7TWbn9iLH">
<path style="stroke: rgb(153,153,153); stroke-width: 4; stroke-dasharray: none; stroke-linecap: butt; stroke-dashoffset: 0; stroke-linejoin: miter; stroke-miterlimit: 4; fill: rgb(255,255,255); fill-opacity: 0; fill-rule: nonzero; opacity: 1;" transform=" translate(-0.000005, 0)" d="M -1.30451 -38.23162 L -30.73199 38.23162 L -31.60535 38.23162 L -1.3045100000000005 -38.23162 L -0.1672200000000006 -38.23162 L 0.9700699999999993 -38.23162 L 31.60536 38.23162 L 30.605130000000003 38.23162 L 0.9700700000000033 -38.23162" stroke-linecap="round" data-index="23"></path>
</g>
<g transform="matrix(0.8054195384 0 0 0.8054195384 408.6217619993 786.6616015744)" id="QlRR7fm7j2M_a1mUQAcUv">
<path style="stroke: rgb(153,153,153); stroke-width: 4; stroke-dasharray: none; stroke-linecap: butt; stroke-dashoffset: 0; stroke-linejoin: miter; stroke-miterlimit: 4; fill: rgb(255,255,255); fill-opacity: 0; fill-rule: nonzero; opacity: 1;" transform=" translate(0, 0)" d="M -20.44776 0 L 20.44776 0" stroke-linecap="round" data-index="24"></path>
</g>
<g transform="matrix(0.8054195384 0 0 0.8054195384 278.6265781445 776.7264511176)" id="gP10dFHUIc8XYquq0oHFP">
<path style="stroke: rgb(153,153,153); stroke-width: 4; stroke-dasharray: none; stroke-linecap: butt; stroke-dashoffset: 0; stroke-linejoin: miter; stroke-miterlimit: 4; fill: rgb(255,255,255); fill-opacity: 0; fill-rule: nonzero; opacity: 1;" transform=" translate(-0.000005, 0)" d="M -1.30451 -38.23162 L -30.73199 38.23162 L -31.60535 38.23162 L -1.3045100000000005 -38.23162 L -0.1672200000000006 -38.23162 L 0.9700699999999993 -38.23162 L 31.60536 38.23162 L 30.605130000000003 38.23162 L 0.9700700000000033 -38.23162" stroke-linecap="round" data-index="25"></path>
</g>
<g transform="matrix(0.8054195384 0 0 0.8054195384 278.6265781445 787.3138044296)" id="by1NdRSUcWXthN1hTT1lf">
<path style="stroke: rgb(153,153,153); stroke-width: 4; stroke-dasharray: none; stroke-linecap: butt; stroke-dashoffset: 0; stroke-linejoin: miter; stroke-miterlimit: 4; fill: rgb(255,255,255); fill-opacity: 0; fill-rule: nonzero; opacity: 1;" transform=" translate(0, 0)" d="M -20.44776 0 L 20.44776 0" stroke-linecap="round" data-index="26"></path>
</g>
<g transform="matrix(0.8054195384 0 0 0.8054195384 332.6598499639 776.5881863152)" id="JjzGVOR2QGXtxMOWVXPRE">
<path style="stroke: rgb(153,153,153); stroke-width: 4; stroke-dasharray: none; stroke-linecap: butt; stroke-dashoffset: 0; stroke-linejoin: miter; stroke-miterlimit: 4; fill: rgb(255,255,255); fill-opacity: 0; fill-rule: nonzero; opacity: 1;" transform=" translate(0.0000074813, 0.0000061658)" d="M 22.98931 -27.99809 L 14.42308 -34.5379 C 7.415690000000001 -39.88762 -2.012780000000001 -40.81915 -9.931569999999999 -36.94413 L -10.034299999999998 -36.893860000000004 L -10.034299999999998 -36.893860000000004 C -15.686129999999999 -34.12816 -19.31586 -28.433150000000005 -19.43638 -22.142070000000004 C -19.5569 -15.850990000000003 -16.14797 -10.021130000000005 -10.60622 -7.040980000000005 C -6.218030000000001 -4.681180000000005 -2.06081 -2.7222500000000043 2.9893099999999997 -0.4742800000000047 C 8.39285 2.043999999999995 11.68126 3.6610199999999953 15.64986 6.230219999999996 L 15.64986 6.230219999999996 C 20.97138 9.675269999999996 23.99261 15.746509999999995 23.531750000000002 22.069049999999997 C 23.070880000000002 28.391589999999997 19.20117 33.96053 13.436320000000002 36.59747 L 13.223770000000002 36.694700000000005 L 13.223770000000002 36.694700000000005 C 3.4956500000000013 41.144510000000004 -7.894969999999997 39.85515 -16.382299999999997 33.343430000000005 L -23.577859999999998 27.822790000000005" stroke-linecap="round" data-index="27"></path>
</g>
<g transform="matrix(0.8054195384 0 0 0.8054195384 472.471430398 776.6574891323)" id="KIEThU8OGB313ykbIrd9K">
<path style="stroke: rgb(153,153,153); stroke-width: 4; stroke-dasharray: none; stroke-linecap: butt; stroke-dashoffset: 0; stroke-linejoin: miter; stroke-miterlimit: 4; fill: rgb(255,255,255); fill-opacity: 0; fill-rule: nonzero; opacity: 1;" transform=" translate(-0.00001, 0)" d="M -27.03086 39.23162 L -27.03086 -37.179759999999995 L -26.65548 -37.179759999999995 L 26.575799999999997 38.52394 L 27.030879999999996 38.52394 L 25.993839999999995 -39.23162" stroke-linecap="round" data-index="28"></path>
</g>
<g transform="matrix(0.8054195384 0 0 0.8054195384 539.4032768518 776.6253480442)" id="6TKLINAGtPEu8iGmZ7d7L">
<path style="stroke: rgb(153,153,153); stroke-width: 4; stroke-dasharray: none; stroke-linecap: butt; stroke-dashoffset: 0; stroke-linejoin: miter; stroke-miterlimit: 4; fill: rgb(255,255,255); fill-opacity: 0; fill-rule: nonzero; opacity: 1;" transform=" translate(0.0000063405, 0.0000018656)" d="M -30.58998 -37.32775 L -30.58998 37.32883 L -9.4424 37.32883 C -9.4424 37.32883 30.31261 39.06416 30.58961 0.03990000000000293 C 30.72811 -39.122859999999996 -9.4424 -37.327749999999995 -9.4424 -37.327749999999995 z" stroke-linecap="round" data-index="29"></path>
</g>
<g transform="matrix(0.8054195384 0 0 0.8054195384 624.3337939196 776.9824343769)" id="R_JbjyFVMFIyrcHg5rLRS">
<path style="stroke: rgb(153,153,153); stroke-width: 4; stroke-dasharray: none; stroke-linecap: butt; stroke-dashoffset: 0; stroke-linejoin: miter; stroke-miterlimit: 4; fill: rgb(255,255,255); fill-opacity: 0; fill-rule: nonzero; opacity: 1;" transform=" translate(0.000005, -0.000005)" d="M -24.62366 38.82818 L -24.62366 -38.82817 L 2.818939999999998 -38.82817 C 2.818939999999998 -38.82817 24.19354 -38.12742 24.623649999999998 -15.88666 C 24.19354 3.12829 2.818939999999998 3.683230000000002 2.818939999999998 3.683230000000002 L -24.62366 3.683230000000002" stroke-linecap="round" data-index="30"></path>
</g>
<g transform="matrix(0.8054195384 0 0 0.73988086 896.5315660873 776.6991277512)" id="0J8id85JhsMOi3-8SgqGU">
<path style="stroke: rgb(153,153,153); stroke-width: 4; stroke-dasharray: none; stroke-linecap: butt; stroke-dashoffset: 0; stroke-linejoin: miter; stroke-miterlimit: 4; fill: rgb(255,255,255); fill-opacity: 0; fill-rule: nonzero; opacity: 1;" transform=" translate(0.000005, 0.000005)" d="M -24.62366 42.06666 L -24.62366 -42.06667 L 2.818939999999998 -42.06667 C 2.818939999999998 -42.06667 24.19354 -41.36592 24.623649999999998 -19.12516 C 24.19354 -0.11021000000000214 2.818939999999998 0.44472999999999985 2.818939999999998 0.44472999999999985 L -24.62366 0.44472999999999985" stroke-linecap="round" data-index="31"></path>
</g>
<g transform="matrix(0.8054195384 0 0 0.8054195384 767.2888665717 777.2552529797)" id="d_RbLKizKrcQNs_cFmJ9Y">
<path style="stroke: rgb(153,153,153); stroke-width: 4; stroke-dasharray: none; stroke-linecap: butt; stroke-dashoffset: 0; stroke-linejoin: miter; stroke-miterlimit: 4; fill: rgb(255,255,255); fill-opacity: 0; fill-rule: nonzero; opacity: 1;" transform=" translate(0.000005, 0)" d="M -24.63904 39.9738 L -47.85174000000001 -39.16691 L -48.67705000000001 -39.16691 L -25.32680000000001 38.48944 L -23.55015000000001 38.48944 L -0.8407500000000105 -39.9738 L 0.5615199999999894 -39.9738 L 23.05589999999999 38.48944 L 24.92699999999999 38.48944 L 48.02344999999999 -39.16691 L 48.67703999999999 -39.16691 L 24.519539999999992 39.9738" stroke-linecap="round" data-index="32"></path>
</g>
<g transform="matrix(0.8054195384 0 0 0.8054195384 842.0851767202 776.2929737527)" id="esD-9eKRlPbvL6ut7vfhh">
<path style="stroke: rgb(153,153,153); stroke-width: 4; stroke-dasharray: none; stroke-linecap: butt; stroke-dashoffset: 0; stroke-linejoin: miter; stroke-miterlimit: 4; fill: rgb(255,255,255); fill-opacity: 0; fill-rule: nonzero; opacity: 1;" transform=" translate(-0.000005, 0.000005)" d="M 23.76761 -37.14789 L -23.767599999999998 -37.14789 L -23.767599999999998 37.14788000000001 L 23.76761 37.14788000000001" stroke-linecap="round" data-index="33"></path>
</g>
<g transform="matrix(0.8054195384 0 0 0.8054195384 842.0851726931 775.6444139029)" id="Dilq0rANDitkwPtAIQDk7">
<path style="stroke: rgb(153,153,153); stroke-width: 4; stroke-dasharray: none; stroke-linecap: butt; stroke-dashoffset: 0; stroke-linejoin: miter; stroke-miterlimit: 4; fill: rgb(255,255,255); fill-opacity: 0; fill-rule: nonzero; opacity: 1;" transform=" translate(0, 0)" d="M -22.25704 0 L 22.25704 0" stroke-linecap="round" data-index="34"></path>
</g>
<g transform="matrix(0.8054195384 0 0 0.8054195384 907.1710081247 792.5393520486)" id="pPxW6C3Jepfc11lqnurKm">
<path style="stroke: rgb(153,153,153); stroke-width: 4; stroke-dasharray: none; stroke-linecap: butt; stroke-dashoffset: 0; stroke-linejoin: miter; stroke-miterlimit: 4; fill: rgb(255,255,255); fill-opacity: 0; fill-rule: nonzero; opacity: 1;" transform=" translate(0.000005, 0)" d="M -15.14085 -18.97657 L 15.14084 18.97657 L 14.742790000000001 18.97657 L -15.140849999999999 -18.97657" stroke-linecap="round" data-index="35"></path>
</g>
<g transform="matrix(1 0 0 1 242.6804492934 777.9680167993)" id="wPOCgggqbcfFA-4zHp2HR">
<path style="stroke: rgb(0,0,0); stroke-width: 1; stroke-dasharray: none; stroke-linecap: butt; stroke-dashoffset: 0; stroke-linejoin: miter; stroke-miterlimit: 4; fill: rgb(255,255,255); fill-opacity: 0; fill-rule: nonzero; opacity: 1;" transform=" translate(0, 0)" d="M 0 0" stroke-linecap="round" data-index="36"></path>
</g>
<g transform="matrix(1 0 0 1 215.0032719733 776.7264511176)" id="kGzHleqoxwzDYWBxC1NAd">
<path style="stroke: rgb(153,153,153); stroke-width: 1; stroke-dasharray: none; stroke-linecap: butt; stroke-dashoffset: 0; stroke-linejoin: miter; stroke-miterlimit: 4; fill: rgb(153,153,153); fill-rule: nonzero; opacity: 1;" transform=" translate(0, 0)" d="M 23.50027 -18.15831 L 21.66189 -16.90422 C 16.74829 -23.856859999999998 8.873429999999999 -28.36502 0.0021500000000003183 -28.36502 C -14.87861 -28.36502 -26.95574 -15.680430000000001 -26.95574 -0.05121000000000109 C -26.95574 15.578009999999999 -14.878609999999998 28.2626 0.0021500000000003183 28.2626 C 13.88327 28.2626 25.3248 17.22498 26.79935 3.0557099999999977 L -0.8237099999999984 3.0557099999999977 L -0.8237099999999984 0.42740999999999785 L 29.19658 0.5287999999999978 C 28.926940000000002 17.174729999999997 15.95129 30.596999999999998 0.002140000000000697 30.596999999999998 C -16.11555 30.596999999999998 -29.19658 16.889539999999997 -29.19658 -3.552713678800501e-15 C -29.19658 -16.889540000000004 -16.11557 -30.596990000000005 0.0021299999999975228 -30.597000000000005 L 0.002139999999997523 -30.597000000000005 C 9.633709999999997 -30.597000000000005 18.18087 -25.702090000000005 23.500259999999997 -18.158310000000007 z" stroke-linecap="round" data-index="37"></path>
</g>
</svg>